<svg width="21" height="21" viewBox="0 0 21 21" fill="none" xmlns="http://www.w3.org/2000/svg">
<path d="M18.238 7.01701C18.3276 7.01685 18.4143 6.98565 18.4834 6.92874C18.5525 6.87182 18.5997 6.79271 18.617 6.70488C18.6343 6.61704 18.6207 6.52592 18.5784 6.44703C18.536 6.36815 18.4676 6.30638 18.3849 6.27225C18.3021 6.23811 18.2101 6.23373 18.1244 6.25984C18.0388 6.28595 17.9649 6.34096 17.9152 6.41546C17.8656 6.48997 17.8434 6.57937 17.8523 6.66845C17.8612 6.75754 17.9007 6.84078 17.964 6.904C18.0369 6.97626 18.1354 7.01687 18.238 7.01701Z" fill="white"/>
<path d="M7.96503 17.529H7.95903C7.85639 17.529 7.75796 17.5698 7.68538 17.6423C7.6128 17.7149 7.57202 17.8134 7.57202 17.916C7.57202 18.0186 7.6128 18.1171 7.68538 18.1897C7.75796 18.2622 7.85639 18.303 7.95903 18.303H7.96503C8.06767 18.303 8.1661 18.2622 8.23868 18.1897C8.31125 18.1171 8.35202 18.0186 8.35202 17.916C8.35202 17.8134 8.31125 17.7149 8.23868 17.6423C8.1661 17.5698 8.06767 17.529 7.96503 17.529Z" fill="white"/>
<path d="M20.1731 15.901V3.07002C20.1725 2.76236 20.05 2.46746 19.8324 2.25001C19.6147 2.03255 19.3197 1.91028 19.0121 1.91002H17.6861V1.67802C17.6909 1.50221 17.6605 1.32722 17.5965 1.16338C17.5326 0.999535 17.4365 0.850169 17.3139 0.724106C17.1912 0.598043 17.0446 0.49784 16.8825 0.429419C16.7205 0.360997 16.5464 0.325745 16.3706 0.325745C16.1947 0.325745 16.0206 0.360997 15.8586 0.429419C15.6966 0.49784 15.5499 0.598043 15.4273 0.724106C15.3046 0.850169 15.2085 0.999535 15.1446 1.16338C15.0807 1.32722 15.0502 1.50221 15.0551 1.67802V1.91002H11.5781V1.67802C11.5829 1.50221 11.5525 1.32722 11.4885 1.16338C11.4246 0.999535 11.3285 0.850169 11.2059 0.724106C11.0832 0.598043 10.9366 0.49784 10.7745 0.429419C10.6125 0.360997 10.4384 0.325745 10.2626 0.325745C10.0867 0.325745 9.9126 0.360997 9.75058 0.429419C9.58856 0.49784 9.44191 0.598043 9.31927 0.724106C9.19664 0.850169 9.10051 0.999535 9.03658 1.16338C8.97265 1.32722 8.94221 1.50221 8.94706 1.67802V1.91002H5.46906V1.67802C5.47391 1.50221 5.44347 1.32722 5.37954 1.16338C5.31561 0.999535 5.21949 0.850169 5.09685 0.724106C4.97422 0.598043 4.82756 0.49784 4.66554 0.429419C4.50352 0.360997 4.32943 0.325745 4.15356 0.325745C3.97769 0.325745 3.8036 0.360997 3.64158 0.429419C3.47956 0.49784 3.33291 0.598043 3.21027 0.724106C3.08764 0.850169 2.99151 0.999535 2.92758 1.16338C2.86365 1.32722 2.83321 1.50221 2.83806 1.67802V1.91002H1.52306C1.2154 1.91028 0.920399 2.03255 0.702755 2.25001C0.485111 2.46746 0.36259 2.76236 0.362061 3.07002L0.362061 19.012C0.362325 19.3199 0.48473 19.615 0.702402 19.8327C0.920074 20.0504 1.21523 20.1728 1.52306 20.173H15.9011C15.9518 20.173 16.002 20.1631 16.0488 20.1437C16.0956 20.1243 16.1382 20.0959 16.1741 20.06L20.0621 16.174C20.1337 16.1013 20.1736 16.0031 20.1731 15.901ZM15.8291 1.67802C15.8259 1.60495 15.8376 1.532 15.8634 1.46357C15.8892 1.39513 15.9286 1.33262 15.9792 1.27981C16.0298 1.227 16.0905 1.18497 16.1578 1.15626C16.225 1.12754 16.2974 1.11274 16.3706 1.11274C16.4437 1.11274 16.5161 1.12754 16.5833 1.15626C16.6506 1.18497 16.7114 1.227 16.762 1.27981C16.8125 1.33262 16.8519 1.39513 16.8777 1.46357C16.9035 1.532 16.9152 1.60495 16.9121 1.67802V3.57802C16.9152 3.65109 16.9035 3.72403 16.8777 3.79247C16.8519 3.86091 16.8125 3.92341 16.762 3.97623C16.7114 4.02904 16.6506 4.07107 16.5833 4.09978C16.5161 4.12849 16.4437 4.14329 16.3706 4.14329C16.2974 4.14329 16.225 4.12849 16.1578 4.09978C16.0905 4.07107 16.0298 4.02904 15.9792 3.97623C15.9286 3.92341 15.8892 3.86091 15.8634 3.79247C15.8376 3.72403 15.8259 3.65109 15.8291 3.57802V1.67802ZM9.72106 1.67802C9.71792 1.60495 9.7296 1.532 9.7554 1.46357C9.78119 1.39513 9.82057 1.33262 9.87117 1.27981C9.92176 1.227 9.98252 1.18497 10.0498 1.15626C10.117 1.12754 10.1894 1.11274 10.2626 1.11274C10.3357 1.11274 10.4081 1.12754 10.4753 1.15626C10.5426 1.18497 10.6034 1.227 10.654 1.27981C10.7045 1.33262 10.7439 1.39513 10.7697 1.46357C10.7955 1.532 10.8072 1.60495 10.8041 1.67802V3.57802C10.7981 3.71761 10.7384 3.84949 10.6375 3.94614C10.5366 4.04279 10.4023 4.09674 10.2626 4.09674C10.1228 4.09674 9.98852 4.04279 9.88763 3.94614C9.78673 3.84949 9.72706 3.71761 9.72106 3.57802V1.67802ZM3.61306 1.67802C3.60992 1.60495 3.6216 1.532 3.6474 1.46357C3.67319 1.39513 3.71257 1.33262 3.76317 1.27981C3.81376 1.227 3.87452 1.18497 3.94178 1.15626C4.00904 1.12754 4.08142 1.11274 4.15456 1.11274C4.2277 1.11274 4.30008 1.12754 4.36734 1.15626C4.43461 1.18497 4.49536 1.227 4.54596 1.27981C4.59655 1.33262 4.63593 1.39513 4.66172 1.46357C4.68752 1.532 4.6992 1.60495 4.69606 1.67802V3.57802C4.69006 3.71761 4.63039 3.84949 4.52949 3.94614C4.4286 4.04279 4.29428 4.09674 4.15456 4.09674C4.01484 4.09674 3.88052 4.04279 3.77963 3.94614C3.67873 3.84949 3.61906 3.71761 3.61306 3.57802V1.67802ZM1.13606 19.012V18.302H6.41706C6.5197 18.302 6.61813 18.2612 6.69071 18.1887C6.76329 18.1161 6.80406 18.0177 6.80406 17.915C6.80406 17.8124 6.76329 17.7139 6.69071 17.6414C6.61813 17.5688 6.5197 17.528 6.41706 17.528H1.13606V7.01702H16.6901C16.7927 7.01702 16.8911 6.97624 16.9637 6.90367C17.0363 6.83109 17.0771 6.73266 17.0771 6.63002C17.0771 6.52738 17.0363 6.42894 16.9637 6.35637C16.8911 6.28379 16.7927 6.24302 16.6901 6.24302H1.13606V3.07002C1.13606 2.96738 1.17683 2.86894 1.24941 2.79637C1.32199 2.72379 1.42042 2.68302 1.52306 2.68302H2.83806V3.57302C2.83321 3.74882 2.86365 3.92382 2.92758 4.08766C2.99151 4.2515 3.08764 4.40087 3.21027 4.52693C3.33291 4.65299 3.47956 4.7532 3.64158 4.82162C3.8036 4.89004 3.97769 4.92529 4.15356 4.92529C4.32943 4.92529 4.50352 4.89004 4.66554 4.82162C4.82756 4.7532 4.97422 4.65299 5.09685 4.52693C5.21949 4.40087 5.31561 4.2515 5.37954 4.08766C5.44347 3.92382 5.47391 3.74882 5.46906 3.57302V2.68302H8.94706V3.57302C8.94221 3.74882 8.97265 3.92382 9.03658 4.08766C9.10051 4.2515 9.19664 4.40087 9.31927 4.52693C9.44191 4.65299 9.58856 4.7532 9.75058 4.82162C9.9126 4.89004 10.0867 4.92529 10.2626 4.92529C10.4384 4.92529 10.6125 4.89004 10.7745 4.82162C10.9366 4.7532 11.0832 4.65299 11.2059 4.52693C11.3285 4.40087 11.4246 4.2515 11.4885 4.08766C11.5525 3.92382 11.5829 3.74882 11.5781 3.57302V2.68302H15.0551V3.57302C15.0645 3.91563 15.2072 4.24104 15.4529 4.48003C15.6986 4.71903 16.0278 4.85275 16.3706 4.85275C16.7133 4.85275 17.0425 4.71903 17.2882 4.48003C17.5339 4.24104 17.6766 3.91563 17.6861 3.57302V2.68302H19.0121C19.1147 2.68302 19.2131 2.72379 19.2857 2.79637C19.3583 2.86894 19.3991 2.96738 19.3991 3.07002V15.514H16.6741C16.3662 15.5143 16.0711 15.6367 15.8534 15.8544C15.6357 16.072 15.5133 16.3672 15.5131 16.675V19.399H1.52306C1.42042 19.399 1.32199 19.3582 1.24941 19.2857C1.17683 19.2131 1.13606 19.1147 1.13606 19.012ZM16.2881 18.852V16.674C16.2881 16.5714 16.3288 16.4729 16.4014 16.4004C16.474 16.3278 16.5724 16.287 16.6751 16.287H18.8521L16.2881 18.852Z" fill="white"/>
<path d="M9.478 10.934C9.478 10.738 9.446 10.582 9.382 10.466C9.322 10.35 9.248 10.26 9.16 10.196C9.076 10.132 8.988 10.09 8.896 10.07C8.808 10.05 8.734 10.04 8.674 10.04C8.594 10.04 8.506 10.054 8.41 10.082C8.318 10.106 8.23 10.152 8.146 10.22C8.062 10.288 7.992 10.38 7.936 10.496C7.88 10.608 7.852 10.754 7.852 10.934V12.572C7.852 12.8 7.89 12.978 7.966 13.106C8.042 13.234 8.128 13.328 8.224 13.388C8.32 13.448 8.412 13.484 8.5 13.496C8.592 13.508 8.652 13.514 8.68 13.514C8.804 13.514 8.916 13.488 9.016 13.436C9.116 13.384 9.204 13.316 9.28 13.232C9.38 13.116 9.438 13.006 9.454 12.902C9.47 12.798 9.478 12.688 9.478 12.572V10.934ZM10.102 12.572C10.102 12.744 10.084 12.912 10.048 13.076C10.012 13.24 9.922 13.406 9.778 13.574C9.726 13.63 9.664 13.688 9.592 13.748C9.52 13.808 9.438 13.864 9.346 13.916C9.254 13.964 9.15 14.004 9.034 14.036C8.918 14.068 8.792 14.084 8.656 14.084C8.516 14.084 8.386 14.066 8.266 14.03C8.15 13.998 8.046 13.956 7.954 13.904C7.862 13.848 7.78 13.79 7.708 13.73C7.64 13.666 7.582 13.604 7.534 13.544C7.458 13.452 7.398 13.358 7.354 13.262C7.314 13.166 7.284 13.074 7.264 12.986C7.248 12.894 7.238 12.81 7.234 12.734C7.23 12.654 7.228 12.584 7.228 12.524V10.976C7.228 10.696 7.276 10.46 7.372 10.268C7.472 10.072 7.594 9.916 7.738 9.8C7.886 9.684 8.044 9.6 8.212 9.548C8.384 9.496 8.54 9.47 8.68 9.47C8.844 9.47 9.01 9.502 9.178 9.566C9.35 9.626 9.504 9.718 9.64 9.842C9.776 9.962 9.886 10.114 9.97 10.298C10.058 10.482 10.102 10.694 10.102 10.934V12.572ZM11.0841 12.692C11.0921 12.888 11.1341 13.042 11.2101 13.154C11.2861 13.262 11.3701 13.344 11.4621 13.4C11.5581 13.452 11.6481 13.484 11.7321 13.496C11.8201 13.508 11.8801 13.514 11.9121 13.514C12.0361 13.514 12.1481 13.49 12.2481 13.442C12.3481 13.39 12.4321 13.326 12.5001 13.25C12.5681 13.17 12.6201 13.082 12.6561 12.986C12.6921 12.89 12.7101 12.794 12.7101 12.698C12.7101 12.578 12.6861 12.468 12.6381 12.368C12.5941 12.268 12.5341 12.184 12.4581 12.116C12.3821 12.048 12.2941 11.996 12.1941 11.96C12.0941 11.92 11.9901 11.9 11.8821 11.9H11.6541V11.276H11.8701C12.0301 11.276 12.1541 11.246 12.2421 11.186C12.3301 11.122 12.3941 11.052 12.4341 10.976C12.4781 10.9 12.5021 10.83 12.5061 10.766C12.5141 10.702 12.5181 10.666 12.5181 10.658C12.5181 10.578 12.5041 10.502 12.4761 10.43C12.4481 10.354 12.4081 10.288 12.3561 10.232C12.3041 10.176 12.2401 10.132 12.1641 10.1C12.0921 10.064 12.0121 10.046 11.9241 10.046C11.8921 10.046 11.8461 10.052 11.7861 10.064C11.7301 10.072 11.6701 10.096 11.6061 10.136C11.5421 10.176 11.4841 10.238 11.4321 10.322C11.3801 10.406 11.3461 10.522 11.3301 10.67H10.7061C10.7221 10.418 10.7801 10.214 10.8801 10.058C10.9801 9.902 11.0961 9.782 11.2281 9.698C11.3601 9.61 11.4921 9.552 11.6241 9.524C11.7561 9.492 11.8621 9.476 11.9421 9.476C12.1181 9.476 12.2781 9.508 12.4221 9.572C12.5701 9.632 12.6961 9.718 12.8001 9.83C12.9081 9.938 12.9921 10.068 13.0521 10.22C13.1121 10.368 13.1421 10.53 13.1421 10.706C13.1421 10.826 13.1301 10.93 13.1061 11.018C13.0821 11.106 13.0501 11.184 13.0101 11.252C12.9741 11.316 12.9321 11.374 12.8841 11.426C12.8361 11.474 12.7861 11.522 12.7341 11.57C12.8621 11.65 12.9641 11.74 13.0401 11.84C13.1201 11.94 13.1821 12.04 13.2261 12.14C13.2701 12.24 13.2981 12.338 13.3101 12.434C13.3261 12.526 13.3341 12.606 13.3341 12.674C13.3341 12.898 13.2941 13.098 13.2141 13.274C13.1381 13.446 13.0341 13.592 12.9021 13.712C12.7701 13.832 12.6161 13.924 12.4401 13.988C12.2681 14.052 12.0861 14.084 11.8941 14.084C11.7061 14.084 11.5261 14.05 11.3541 13.982C11.1821 13.914 11.0301 13.818 10.8981 13.694C10.7661 13.57 10.6601 13.424 10.5801 13.256C10.5001 13.084 10.4601 12.896 10.4601 12.692H11.0841Z" fill="white"/>
</svg>
