<svg width="25" height="25" viewBox="0 0 25 25" fill="none" xmlns="http://www.w3.org/2000/svg">
<path d="M22.139 8.24199C22.2498 8.24185 22.3571 8.2033 22.4427 8.1329C22.5283 8.0625 22.5868 7.96462 22.6083 7.85591C22.6298 7.7472 22.613 7.6344 22.5606 7.53673C22.5083 7.43906 22.4237 7.36256 22.3213 7.32027C22.2188 7.27797 22.1049 7.27249 21.9989 7.30476C21.8929 7.33704 21.8013 7.40507 21.7399 7.49727C21.6784 7.58946 21.6508 7.70011 21.6618 7.81038C21.6727 7.92065 21.7216 8.0237 21.8 8.10199C21.8902 8.19141 22.012 8.24171 22.139 8.24199Z" fill="white"/>
<path d="M9.41606 21.261H9.40906C9.28202 21.261 9.16019 21.3114 9.07036 21.4013C8.98053 21.4911 8.93005 21.613 8.93005 21.74C8.93005 21.867 8.98053 21.9889 9.07036 22.0787C9.16019 22.1685 9.28202 22.219 9.40906 22.219H9.41606C9.5431 22.219 9.66493 22.1685 9.75476 22.0787C9.84459 21.9889 9.89505 21.867 9.89505 21.74C9.89505 21.613 9.84459 21.4911 9.75476 21.4013C9.66493 21.3114 9.5431 21.261 9.41606 21.261Z" fill="white"/>
<path d="M24.535 19.244V3.35401C24.5345 2.9734 24.3832 2.60851 24.1142 2.33919C23.8453 2.06987 23.4806 1.91807 23.1 1.91701H21.456V1.62901C21.456 1.19684 21.2843 0.782372 20.9787 0.476781C20.6731 0.171191 20.2587 -0.000488281 19.8265 -0.000488281C19.3943 -0.000488281 18.9799 0.171191 18.6743 0.476781C18.3687 0.782372 18.197 1.19684 18.197 1.62901V1.91701H13.891V1.62901C13.891 1.19684 13.7193 0.782372 13.4137 0.476781C13.1081 0.171191 12.6937 -0.000488281 12.2615 -0.000488281C11.8293 -0.000488281 11.4149 0.171191 11.1093 0.476781C10.8037 0.782372 10.632 1.19684 10.632 1.62901V1.91701H6.325V1.62901C6.325 1.19684 6.15332 0.782372 5.84773 0.476781C5.54214 0.171191 5.12767 -0.000488257 4.6955 -0.000488257C4.26333 -0.000488257 3.84886 0.171191 3.54327 0.476781C3.23768 0.782372 3.066 1.19684 3.066 1.62901V1.91701H1.438C1.05687 1.91728 0.691417 2.06873 0.421826 2.33813C0.152235 2.60753 0.000529619 2.97289 0 3.35401L0 23.1C0.000264884 23.4813 0.151853 23.8469 0.421473 24.1165C0.691093 24.3862 1.0567 24.5377 1.438 24.538H19.244C19.3069 24.5381 19.3693 24.5258 19.4275 24.5018C19.4856 24.4778 19.5385 24.4425 19.583 24.398L24.395 19.586C24.4399 19.5412 24.4754 19.4878 24.4994 19.4291C24.5234 19.3704 24.5355 19.3075 24.535 19.244ZM19.156 1.62901C19.156 1.45105 19.2267 1.28038 19.3525 1.15454C19.4784 1.02871 19.649 0.958012 19.827 0.958012C20.005 0.958012 20.1756 1.02871 20.3015 1.15454C20.4273 1.28038 20.498 1.45105 20.498 1.62901V3.97701C20.498 4.15497 20.4273 4.32564 20.3015 4.45148C20.1756 4.57732 20.005 4.64801 19.827 4.64801C19.649 4.64801 19.4784 4.57732 19.3525 4.45148C19.2267 4.32564 19.156 4.15497 19.156 3.97701V1.62901ZM11.591 1.62901C11.591 1.45105 11.6617 1.28038 11.7875 1.15454C11.9134 1.02871 12.084 0.958012 12.262 0.958012C12.44 0.958012 12.6106 1.02871 12.7365 1.15454C12.8623 1.28038 12.933 1.45105 12.933 1.62901V3.97701C12.933 4.15497 12.8623 4.32564 12.7365 4.45148C12.6106 4.57732 12.44 4.64801 12.262 4.64801C12.084 4.64801 11.9134 4.57732 11.7875 4.45148C11.6617 4.32564 11.591 4.15497 11.591 3.97701V1.62901ZM4.026 1.62901C4.026 1.45105 4.09669 1.28038 4.22253 1.15454C4.34837 1.02871 4.51904 0.958012 4.697 0.958012C4.87496 0.958012 5.04563 1.02871 5.17147 1.15454C5.29731 1.28038 5.368 1.45105 5.368 1.62901V3.97701C5.368 4.15497 5.29731 4.32564 5.17147 4.45148C5.04563 4.57732 4.87496 4.64801 4.697 4.64801C4.51904 4.64801 4.34837 4.57732 4.22253 4.45148C4.09669 4.32564 4.026 4.15497 4.026 3.97701V1.62901ZM0.958 23.1V22.221H7.5C7.5629 22.221 7.62519 22.2086 7.68331 22.1845C7.74142 22.1605 7.79422 22.1252 7.8387 22.0807C7.88318 22.0362 7.91847 21.9834 7.94254 21.9253C7.96661 21.8672 7.979 21.8049 7.979 21.742C7.979 21.6791 7.96661 21.6168 7.94254 21.5587C7.91847 21.5006 7.88318 21.4478 7.8387 21.4033C7.79422 21.3588 7.74142 21.3235 7.68331 21.2995C7.62519 21.2754 7.5629 21.263 7.5 21.263H0.958V8.24201H20.222C20.349 8.24201 20.4709 8.19155 20.5607 8.10172C20.6505 8.01189 20.701 7.89005 20.701 7.76301C20.701 7.63597 20.6505 7.51414 20.5607 7.42431C20.4709 7.33448 20.349 7.28401 20.222 7.28401H0.958V3.35401C0.958264 3.22705 1.00882 3.10537 1.09859 3.0156C1.18836 2.92583 1.31004 2.87528 1.437 2.87501H3.067V3.97501C3.067 4.40718 3.23868 4.82165 3.54427 5.12724C3.84986 5.43283 4.26433 5.60451 4.6965 5.60451C5.12867 5.60451 5.54314 5.43283 5.84873 5.12724C6.15432 4.82165 6.326 4.40718 6.326 3.97501V2.87501H10.633V3.97501C10.633 4.40718 10.8047 4.82165 11.1103 5.12724C11.4159 5.43283 11.8303 5.60451 12.2625 5.60451C12.6947 5.60451 13.1091 5.43283 13.4147 5.12724C13.7203 4.82165 13.892 4.40718 13.892 3.97501V2.87501H18.2V3.97501C18.2 4.40718 18.3717 4.82165 18.6773 5.12724C18.9829 5.43283 19.3973 5.60451 19.8295 5.60451C20.2617 5.60451 20.6761 5.43283 20.9817 5.12724C21.2873 4.82165 21.459 4.40718 21.459 3.97501V2.87501H23.1C23.227 2.87528 23.3486 2.92583 23.4384 3.0156C23.5282 3.10537 23.5787 3.22705 23.579 3.35401V18.765H20.2C19.8197 18.7661 19.4554 18.9176 19.1865 19.1865C18.9176 19.4554 18.7661 19.8198 18.765 20.2V23.574H1.438C1.31173 23.574 1.19054 23.5243 1.10069 23.4356C1.01085 23.3468 0.959578 23.2263 0.958 23.1ZM19.723 22.9V20.2C19.7233 20.0731 19.7738 19.9514 19.8636 19.8616C19.9534 19.7718 20.075 19.7213 20.202 19.721H22.902L19.723 22.9Z" fill="white"/>
<path d="M12.31 12.345C11.7881 12.345 11.2779 12.4997 10.8439 12.7897C10.4099 13.0797 10.0716 13.4919 9.87191 13.9741C9.67217 14.4563 9.6199 14.9869 9.72173 15.4988C9.82356 16.0107 10.0749 16.481 10.444 16.85C10.813 17.2191 11.2833 17.4704 11.7952 17.5723C12.3071 17.6741 12.8377 17.6218 13.3199 17.4221C13.8021 17.2223 14.2143 16.8841 14.5043 16.4501C14.7943 16.0161 14.949 15.5059 14.949 14.984C14.9482 14.2843 14.6699 13.6135 14.1752 13.1188C13.6805 12.6241 13.0097 12.3458 12.31 12.345ZM12.31 17.019C11.9077 17.019 11.5145 16.8997 11.18 16.6762C10.8455 16.4527 10.5848 16.135 10.4309 15.7634C10.2769 15.3917 10.2366 14.9827 10.3151 14.5882C10.3936 14.1936 10.5873 13.8312 10.8718 13.5467C11.1562 13.2623 11.5187 13.0685 11.9132 12.9901C12.3078 12.9116 12.7167 12.9519 13.0884 13.1058C13.4601 13.2598 13.7777 13.5204 14.0012 13.8549C14.2247 14.1894 14.344 14.5827 14.344 14.985C14.3432 15.5242 14.1287 16.0411 13.7474 16.4223C13.3661 16.8036 12.8492 17.0182 12.31 17.019Z" fill="white"/>
<path d="M12.307 11.614C12.3464 11.614 12.3854 11.6062 12.4218 11.5911C12.4582 11.576 12.4912 11.554 12.5191 11.5261C12.5469 11.4982 12.569 11.4652 12.5841 11.4288C12.5992 11.3924 12.607 11.3533 12.607 11.3139V9.97896C12.607 9.89939 12.5753 9.82309 12.5191 9.76683C12.4628 9.71057 12.3865 9.67896 12.307 9.67896C12.2274 9.67896 12.1511 9.71057 12.0948 9.76683C12.0386 9.82309 12.007 9.89939 12.007 9.97896V11.3139C12.007 11.3935 12.0386 11.4698 12.0948 11.5261C12.1511 11.5824 12.2274 11.614 12.307 11.614Z" fill="white"/>
<path d="M12.307 18.353C12.2274 18.353 12.1511 18.3846 12.0948 18.4408C12.0386 18.4971 12.007 18.5734 12.007 18.653V19.9879C12.007 20.0675 12.0386 20.1438 12.0948 20.2001C12.1511 20.2564 12.2274 20.288 12.307 20.288C12.3865 20.288 12.4628 20.2564 12.5191 20.2001C12.5753 20.1438 12.607 20.0675 12.607 19.9879V18.653C12.607 18.5734 12.5753 18.4971 12.5191 18.4408C12.4628 18.3846 12.3865 18.353 12.307 18.353Z" fill="white"/>
<path d="M15.1201 17.366C15.0634 17.3093 14.9866 17.2775 14.9066 17.2775C14.8265 17.2775 14.7497 17.3093 14.6931 17.366C14.6364 17.4226 14.6046 17.4994 14.6046 17.5795C14.6046 17.6595 14.6364 17.7363 14.6931 17.793L15.6371 18.737C15.6651 18.7651 15.6984 18.7874 15.735 18.8026C15.7717 18.8178 15.811 18.8257 15.8507 18.8257C15.8904 18.8258 15.9297 18.818 15.9664 18.8029C16.0031 18.7877 16.0364 18.7655 16.0645 18.7375C16.0926 18.7094 16.115 18.6761 16.1302 18.6395C16.1454 18.6028 16.1533 18.5635 16.1533 18.5238C16.1534 18.4841 16.1456 18.4448 16.1305 18.4081C16.1153 18.3714 16.0931 18.3381 16.065 18.31L15.1201 17.366Z" fill="white"/>
<path d="M17.317 14.681H15.982C15.9025 14.681 15.8262 14.7126 15.7699 14.7688C15.7136 14.8251 15.682 14.9014 15.682 14.981C15.682 15.0605 15.7136 15.1368 15.7699 15.1931C15.8262 15.2493 15.9025 15.281 15.982 15.281H17.317C17.3966 15.281 17.4729 15.2493 17.5291 15.1931C17.5854 15.1368 17.617 15.0605 17.617 14.981C17.617 14.9014 17.5854 14.8251 17.5291 14.7688C17.4729 14.7126 17.3966 14.681 17.317 14.681Z" fill="white"/>
<path d="M9.49899 12.5999C9.55562 12.6566 9.63242 12.6884 9.71249 12.6884C9.79257 12.6884 9.86937 12.6566 9.92599 12.5999C9.98262 12.5433 10.0144 12.4665 10.0144 12.3864C10.0144 12.3064 9.98262 12.2296 9.92599 12.1729L8.98199 11.2289C8.92537 11.1723 8.84857 11.1405 8.76849 11.1405C8.68842 11.1405 8.61162 11.1723 8.55499 11.2289C8.49837 11.2856 8.46655 11.3624 8.46655 11.4424C8.46655 11.5225 8.49837 11.5993 8.55499 11.6559L9.49899 12.5999Z" fill="white"/>
<path d="M9.49899 17.3649L8.55499 18.3089C8.49837 18.3656 8.46655 18.4424 8.46655 18.5224C8.46655 18.6025 8.49837 18.6793 8.55499 18.7359C8.61162 18.7926 8.68842 18.8244 8.76849 18.8244C8.84857 18.8244 8.92537 18.7926 8.98199 18.7359L9.92599 17.7919C9.98262 17.7353 10.0144 17.6585 10.0144 17.5784C10.0144 17.4984 9.98262 17.4216 9.92599 17.3649C9.86937 17.3083 9.79257 17.2765 9.71249 17.2765C9.63242 17.2765 9.55562 17.3083 9.49899 17.3649Z" fill="white"/>
<path d="M14.9059 12.6889C14.9457 12.689 14.9851 12.6812 15.0219 12.6659C15.0586 12.6507 15.092 12.6282 15.12 12.5999L16.064 11.6559C16.1206 11.5993 16.1524 11.5225 16.1524 11.4424C16.1524 11.3624 16.1206 11.2856 16.064 11.2289C16.0073 11.1723 15.9305 11.1405 15.8505 11.1405C15.7704 11.1405 15.6936 11.1723 15.637 11.2289L14.693 12.1729C14.6495 12.2148 14.6197 12.2687 14.6074 12.3278C14.5951 12.3868 14.6009 12.4482 14.624 12.5039C14.6471 12.5596 14.6864 12.6071 14.7369 12.6401C14.7874 12.6731 14.8466 12.6901 14.9069 12.6889H14.9059Z" fill="white"/>
<path d="M8.94001 14.9829C8.94001 14.9034 8.9084 14.8271 8.85214 14.7708C8.79588 14.7146 8.71957 14.6829 8.64001 14.6829H7.30501C7.22544 14.6829 7.14913 14.7146 7.09287 14.7708C7.03661 14.8271 7.005 14.9034 7.005 14.9829C7.005 15.0625 7.03661 15.1388 7.09287 15.1951C7.14913 15.2513 7.22544 15.2829 7.30501 15.2829H8.64001C8.71957 15.2829 8.79588 15.2513 8.85214 15.1951C8.9084 15.1388 8.94001 15.0625 8.94001 14.9829Z" fill="white"/>
</svg>
